<?xml version="1.0" standalone="no"?>
<!DOCTYPE svg PUBLIC "-//W3C//DTD SVG 20010904//EN"
 "http://www.w3.org/TR/2001/REC-SVG-20010904/DTD/svg10.dtd">
<svg version="1.0" xmlns="http://www.w3.org/2000/svg"
 width="512.000000pt" height="512.000000pt" viewBox="0 0 512.000000 512.000000"
 preserveAspectRatio="xMidYMid meet">

<g transform="translate(0.000000,512.000000) scale(0.100000,-0.100000)"
fill="#000000" stroke="none">
<path d="M2425 4819 c-87 -14 -227 -59 -327 -103 -173 -78 -253 -132 -388
-261 -399 -383 -1087 -961 -1612 -1355 -70 -52 -88 -71 -94 -98 -30 -148 306
-436 901 -773 l141 -79 -8 -83 c-14 -142 5 -375 43 -532 141 -577 575 -1037
1123 -1190 272 -76 592 -68 864 21 510 169 910 610 1046 1152 39 154 49 245
50 430 l1 172 107 68 c298 186 550 414 721 651 54 74 127 214 127 242 0 12
-29 40 -77 76 -116 85 -818 649 -1312 1053 -502 411 -507 415 -586 462 -198
119 -509 183 -720 147z m245 -354 c10 -12 11 -40 6 -109 l-6 -94 51 -11 c64
-14 133 -44 175 -76 l31 -24 22 23 c11 12 21 27 21 32 0 5 19 29 43 52 46 45
82 54 92 22 11 -33 -10 -58 -115 -138 l-30 -23 25 -33 c34 -45 66 -120 74
-175 6 -45 7 -46 41 -45 19 1 52 5 72 9 80 16 141 -20 106 -62 -11 -13 -28
-15 -111 -9 -74 5 -98 3 -101 -6 -2 -7 -9 -38 -15 -69 -7 -34 -27 -79 -51
-115 l-40 -59 26 -22 c14 -13 31 -23 38 -23 20 0 86 -77 86 -100 0 -10 -9 -24
-20 -30 -17 -9 -27 -4 -70 36 -28 26 -50 52 -50 59 0 6 -9 20 -20 30 -19 17
-21 17 -57 -8 -54 -37 -124 -66 -176 -73 l-46 -7 2 -106 2 -106 -30 0 -30 0 2
106 2 107 -47 6 c-54 7 -147 48 -179 78 l-23 21 -25 -23 c-14 -13 -25 -28 -25
-34 0 -6 -17 -27 -37 -48 -39 -40 -72 -48 -93 -23 -15 19 2 48 52 89 18 14 45
37 60 49 l28 22 -30 43 c-36 53 -70 142 -70 183 l0 29 -95 -6 c-100 -7 -125 0
-125 37 0 39 39 44 178 23 41 -6 42 -6 42 23 0 44 35 136 70 189 31 43 31 46
14 65 -9 10 -23 19 -29 19 -7 0 -33 22 -59 50 -40 43 -45 53 -36 70 6 11 19
20 30 20 27 0 78 -46 101 -92 11 -21 26 -41 34 -45 8 -3 36 9 62 26 43 28 104
51 176 66 l27 5 -6 95 c-7 96 0 125 31 125 7 0 18 -7 25 -15z m205 -1384 c507
-113 903 -510 1035 -1038 6 -24 15 -43 20 -43 15 0 12 -160 -5 -275 -13 -95
-22 -135 -31 -135 -2 0 -55 40 -117 88 l-114 88 17 45 c89 226 -47 501 -285
576 -135 43 -268 20 -405 -69 -25 -17 -26 -16 -435 298 -225 173 -427 329
-449 346 l-38 31 58 24 c78 32 191 63 289 79 112 19 344 11 460 -15z m-532
-609 l487 -374 -6 -52 c-3 -28 -7 -56 -9 -63 -2 -6 1 -42 6 -80 25 -178 157
-326 331 -373 78 -21 211 -9 286 25 l62 28 103 -79 c56 -43 126 -97 155 -119
63 -48 63 -51 -4 -171 -66 -116 -135 -206 -244 -314 -480 -477 -1209 -510
-1738 -77 -85 69 -197 194 -266 296 -156 234 -246 531 -246 817 0 82 2 94 16
92 12 -2 23 18 43 87 65 213 161 386 305 549 73 82 207 196 221 188 6 -3 229
-174 498 -380z"/>
<path d="M2574 4190 c-47 -10 -134 -51 -152 -72 -9 -11 10 -35 93 -118 l105
-105 0 153 c0 83 -1 152 -2 151 -2 -1 -22 -5 -44 -9z"/>
<path d="M2670 4048 l0 -153 105 105 c58 58 105 107 105 110 0 3 -19 17 -43
31 -40 25 -78 40 -139 53 l-28 6 0 -152z"/>
<path d="M2351 4044 c-25 -32 -61 -126 -61 -159 l0 -25 152 0 153 0 -105 105
c-58 58 -108 105 -112 105 -3 0 -16 -12 -27 -26z"/>
<path d="M2810 3965 l-105 -105 151 0 151 0 -8 47 c-10 54 -63 163 -79 163 -3
0 -52 -47 -110 -105z"/>
<path d="M2290 3785 c0 -34 36 -125 62 -158 l23 -28 105 106 105 105 -148 0
-147 0 0 -25z"/>
<path d="M2810 3705 l105 -106 23 28 c26 33 62 124 62 158 l0 25 -147 0 -148
0 105 -105z"/>
<path d="M2670 3631 l0 -154 43 7 c48 7 139 49 158 72 11 13 -3 31 -94 122
l-107 107 0 -154z"/>
<path d="M2512 3667 l-104 -104 49 -31 c46 -30 147 -62 158 -50 3 3 4 69 3
147 l-3 141 -103 -103z"/>
<path d="M1670 2282 l0 -79 128 -33 c70 -18 131 -35 135 -38 5 -2 -5 -18 -22
-36 -120 -124 -80 -313 82 -381 110 -46 265 29 297 145 13 47 13 114 -2 145
-6 14 -9 27 -7 30 3 2 27 -2 54 -10 94 -29 84 -18 -50 55 l-80 43 33 -37 c17
-20 32 -38 32 -40 0 -2 -48 9 -107 26 -60 16 -129 34 -155 40 -27 6 -48 14
-48 18 0 14 79 32 128 29 28 -2 48 -1 44 2 -4 3 -88 50 -186 103 -156 84 -185
96 -228 96 l-48 0 0 -78z m522 -288 c54 -49 57 -124 6 -175 -25 -24 -38 -29
-78 -29 -39 0 -54 5 -78 28 -57 53 -49 144 16 185 34 22 104 17 134 -9z"/>
<path d="M2200 1150 l0 -40 400 0 400 0 0 40 0 40 -400 0 -400 0 0 -40z"/>
</g>
</svg>
